<svg width="80" height="80" viewBox="0 0 80 80" fill="none" xmlns="http://www.w3.org/2000/svg">
<path d="M60 7.5H52.5V5C52.5 3.625 51.375 2.5 50 2.5H30C28.625 2.5 27.5 3.625 27.5 5V7.5H20C18.6749 7.5033 17.4051 8.03114 16.4681 8.96811C15.5311 9.90508 15.0033 11.1749 15 12.5V72.5C15 75.2487 17.2488 77.5 20 77.5H60C62.7487 77.5 65 75.2487 65 72.5V12.5C65 9.74875 62.7487 7.5 60 7.5ZM61.25 67.5C61.25 68.1763 60.6763 68.75 60 68.75H20C19.3213 68.75 18.75 68.1763 18.75 67.5V17.5C18.75 16.8213 19.3213 16.25 20 16.25H60C60.6763 16.25 61.25 16.8213 61.25 17.5V67.5Z" fill="#FAB387"/>
<path d="M55 21.25H25C23.625 21.25 22.5 22.375 22.5 23.75V28.75C22.5 30.125 23.625 31.25 25 31.25H55C56.375 31.25 57.5 30.125 57.5 28.75V23.75C57.5 22.375 56.375 21.25 55 21.25ZM55 37.5H25C23.625 37.5 22.5 38.625 22.5 40V45C22.5 46.375 23.625 47.5 25 47.5H55C56.375 47.5 57.5 46.375 57.5 45V40C57.5 38.625 56.375 37.5 55 37.5ZM55 53.75H25C23.625 53.75 22.5 54.875 22.5 56.25V61.25C22.5 62.625 23.625 63.75 25 63.75H55C56.375 63.75 57.5 62.625 57.5 61.25V56.25C57.5 54.875 56.375 53.75 55 53.75Z" fill="#FAB387"/>
</svg>
