<svg width="80" height="80" viewBox="0 0 80 80" fill="none" xmlns="http://www.w3.org/2000/svg">
<path d="M67.5 10V60C67.5 60.663 67.2366 61.2989 66.7678 61.7678C66.2989 62.2366 65.663 62.5 65 62.5H22.5C21.1739 62.5 19.9021 63.0268 18.9645 63.9645C18.0268 64.9021 17.5 66.1739 17.5 67.5H60C60.663 67.5 61.2989 67.7634 61.7678 68.2322C62.2366 68.7011 62.5 69.337 62.5 70C62.5 70.663 62.2366 71.2989 61.7678 71.7678C61.2989 72.2366 60.663 72.5 60 72.5H15C14.337 72.5 13.7011 72.2366 13.2322 71.7678C12.7634 71.2989 12.5 70.663 12.5 70V17.5C12.5 14.8478 13.5536 12.3043 15.4289 10.4289C17.3043 8.55357 19.8478 7.5 22.5 7.5H65C65.663 7.5 66.2989 7.76339 66.7678 8.23223C67.2366 8.70107 67.5 9.33696 67.5 10Z" fill="#FAB387"/>
</svg>
