<svg width="80" height="80" viewBox="0 0 80 80" fill="none" xmlns="http://www.w3.org/2000/svg">
<path d="M60 40C60 45.3043 57.8929 50.3914 54.1421 54.1421C50.3914 57.8929 45.3043 60 40 60C34.6957 60 29.6086 57.8929 25.8579 54.1421C22.1071 50.3914 20 45.3043 20 40C20 34.6957 22.1071 29.6086 25.8579 25.8579C29.6086 22.1071 34.6957 20 40 20C45.3043 20 50.3914 22.1071 54.1421 25.8579C57.8929 29.6086 60 34.6957 60 40Z" fill="#FAB387"/>
<path fill-rule="evenodd" clip-rule="evenodd" d="M40 4.16669C40.663 4.16669 41.2989 4.43008 41.7677 4.89892C42.2366 5.36776 42.5 6.00365 42.5 6.66669V10C42.5 10.6631 42.2366 11.2989 41.7677 11.7678C41.2989 12.2366 40.663 12.5 40 12.5C39.3369 12.5 38.701 12.2366 38.2322 11.7678C37.7634 11.2989 37.5 10.6631 37.5 10V6.66669C37.5 6.00365 37.7634 5.36776 38.2322 4.89892C38.701 4.43008 39.3369 4.16669 40 4.16669ZM14.6633 14.6634C15.132 14.1952 15.7675 13.9322 16.43 13.9322C17.0925 13.9322 17.7279 14.1952 18.1966 14.6634L19.5066 15.97C19.9622 16.4413 20.2145 17.0727 20.2092 17.7282C20.2038 18.3837 19.9411 19.0109 19.4778 19.4746C19.0145 19.9383 18.3876 20.2016 17.7321 20.2076C17.0766 20.2136 16.445 19.9619 15.9733 19.5067L14.6633 18.1967C14.1951 17.7279 13.9322 17.0925 13.9322 16.43C13.9322 15.7675 14.1951 15.1321 14.6633 14.6634ZM65.3366 14.6634C65.8048 15.1321 66.0678 15.7675 66.0678 16.43C66.0678 17.0925 65.8048 17.7279 65.3366 18.1967L64.0266 19.5067C63.5527 19.9483 62.9259 20.1887 62.2782 20.1773C61.6305 20.1658 61.0126 19.9035 60.5546 19.4454C60.0965 18.9874 59.8341 18.3694 59.8227 17.7218C59.8113 17.0741 60.0517 16.4473 60.4933 15.9734L61.8033 14.6634C62.272 14.1952 62.9075 13.9322 63.57 13.9322C64.2325 13.9322 64.8679 14.1952 65.3366 14.6634ZM4.16663 40C4.16663 39.337 4.43002 38.7011 4.89886 38.2323C5.3677 37.7634 6.00358 37.5 6.66663 37.5H9.99996C10.663 37.5 11.2989 37.7634 11.7677 38.2323C12.2366 38.7011 12.5 39.337 12.5 40C12.5 40.6631 12.2366 41.2989 11.7677 41.7678C11.2989 42.2366 10.663 42.5 9.99996 42.5H6.66663C6.00358 42.5 5.3677 42.2366 4.89886 41.7678C4.43002 41.2989 4.16663 40.6631 4.16663 40ZM67.5 40C67.5 39.337 67.7633 38.7011 68.2322 38.2323C68.701 37.7634 69.3369 37.5 70 37.5H73.3333C73.9963 37.5 74.6322 37.7634 75.1011 38.2323C75.5699 38.7011 75.8333 39.337 75.8333 40C75.8333 40.6631 75.5699 41.2989 75.1011 41.7678C74.6322 42.2366 73.9963 42.5 73.3333 42.5H70C69.3369 42.5 68.701 42.2366 68.2322 41.7678C67.7633 41.2989 67.5 40.6631 67.5 40ZM60.4933 60.4934C60.962 60.0252 61.5975 59.7622 62.26 59.7622C62.9225 59.7622 63.5579 60.0252 64.0266 60.4934L65.3366 61.8034C65.5822 62.0322 65.7793 62.3082 65.9159 62.6149C66.0525 62.9216 66.126 63.2526 66.1319 63.5883C66.1379 63.924 66.0761 64.2574 65.9504 64.5687C65.8246 64.88 65.6375 65.1628 65.4001 65.4001C65.1627 65.6375 64.8799 65.8247 64.5686 65.9504C64.2573 66.0762 63.9239 66.1379 63.5882 66.132C63.2525 66.1261 62.9215 66.0526 62.6148 65.916C62.3082 65.7793 62.0322 65.5823 61.8033 65.3367L60.4933 64.0267C60.0251 63.5579 59.7622 62.9225 59.7622 62.26C59.7622 61.5975 60.0251 60.9621 60.4933 60.4934ZM19.5066 60.4934C19.9748 60.9621 20.2378 61.5975 20.2378 62.26C20.2378 62.9225 19.9748 63.5579 19.5066 64.0267L18.1966 65.3367C17.9678 65.5823 17.6918 65.7793 17.3851 65.916C17.0784 66.0526 16.7474 66.1261 16.4117 66.132C16.076 66.1379 15.7426 66.0762 15.4313 65.9504C15.12 65.8247 14.8372 65.6375 14.5998 65.4001C14.3624 65.1628 14.1753 64.88 14.0495 64.5687C13.9238 64.2574 13.8621 63.924 13.868 63.5883C13.8739 63.2526 13.9474 62.9216 14.084 62.6149C14.2207 62.3082 14.4177 62.0322 14.6633 61.8034L15.97 60.4934C16.2021 60.261 16.4778 60.0767 16.7812 59.951C17.0846 59.8253 17.4099 59.7606 17.7383 59.7606C18.0667 59.7606 18.392 59.8253 18.6954 59.951C18.9988 60.0767 19.2745 60.261 19.5066 60.4934ZM40 67.5C40.663 67.5 41.2989 67.7634 41.7677 68.2322C42.2366 68.7011 42.5 69.337 42.5 70V73.3334C42.5 73.9964 42.2366 74.6323 41.7677 75.1011C41.2989 75.57 40.663 75.8334 40 75.8334C39.3369 75.8334 38.701 75.57 38.2322 75.1011C37.7634 74.6323 37.5 73.9964 37.5 73.3334V70C37.5 69.337 37.7634 68.7011 38.2322 68.2322C38.701 67.7634 39.3369 67.5 40 67.5Z" fill="#FAB387"/>
</svg>
