<svg width="24" height="24" viewBox="0 0 24 24" fill="none" xmlns="http://www.w3.org/2000/svg">
<g clip-path="url(#clip0_23_8)">
<path d="M19.885 3.90601C19.7575 3.90864 19.6339 3.95054 19.531 4.02601C19.451 4.10601 19.37 4.22201 19.37 4.33901C19.37 4.53901 19.606 4.81301 20.043 5.26201C21.865 7.01601 22.781 9.16501 22.775 11.756C22.768 14.623 21.805 16.926 19.931 18.71C19.537 19.063 19.375 19.34 19.374 19.577C19.374 19.693 19.454 19.814 19.534 19.93C19.6296 20.023 19.7543 20.0802 19.887 20.092C20.321 20.092 20.927 19.58 21.72 18.583C23.262 16.693 23.96 14.605 23.999 11.759C24.035 8.91201 23.142 6.98201 21.396 4.98901C20.766 4.27701 20.243 3.90701 19.885 3.90601ZM4.11605 3.90801C3.75805 3.90801 3.23405 4.27801 2.60605 4.99101C0.858047 6.98401 -0.0349532 8.91401 0.00104683 11.761C0.0410468 14.607 0.738047 16.694 2.28105 18.585C3.07205 19.582 3.67905 20.095 4.11305 20.094C4.2457 20.0828 4.37023 20.0255 4.46505 19.932C4.54505 19.816 4.62505 19.695 4.62505 19.579C4.62505 19.342 4.46305 19.065 4.06905 18.713C2.19605 16.928 1.23205 14.626 1.22505 11.758C1.21905 9.16701 2.13505 7.01801 3.95705 5.26401C4.39405 4.81501 4.63105 4.54201 4.63005 4.34101C4.63005 4.22401 4.55005 4.10801 4.46905 4.02801C4.3662 3.95254 4.24258 3.91064 4.11505 3.90801H4.11605ZM11.172 4.80301C11.172 4.80301 11.827 6.88401 8.52305 11.53C5.36705 15.963 9.56805 18.68 9.95505 18.916C9.67405 18.736 7.95405 17.416 10.357 13.493C10.823 12.723 11.433 12.023 12.191 10.452C12.191 10.452 12.861 11.398 12.511 13.45C11.988 16.551 14.782 15.664 14.825 15.707C15.801 16.857 14.017 18.877 13.908 18.94C13.8 19.001 19.004 15.81 15.307 11.005C15.054 11.258 14.725 12.447 14.04 12.271C13.356 12.097 16.165 8.77701 11.172 4.80301ZM9.95505 18.916C9.97905 18.932 9.99171 18.94 9.99305 18.94L9.95505 18.916Z" fill="#F5E0DC"/>
</g>
<defs>
<clipPath id="clip0_23_8">
<rect width="24" height="24" fill="white"/>
</clipPath>
</defs>
</svg>
